2014001_C1_03_grf
version=1
nRows=21
nColumns=19
inDegrees=no
endheader
time	ground_force_1_vx	ground_force_1_vy	ground_force_1_vz	ground_force_1_px	ground_force_1_py	ground_force_1_pz	ground_force_1_mx	ground_force_1_my	ground_force_1_mz	ground_force_2_vx	ground_force_2_vy	ground_force_2_vz	ground_force_2_px	ground_force_2_py	ground_force_2_pz	ground_force_2_mx	ground_force_2_my	ground_force_2_mz
      2.45000000	      0.00000000	      0.00000000	      0.00000000	      0.00000000	      0.00000000	      0.00000000	      0.00000000	      0.00000000	      0.00000000	     13.11817355	    656.62827343	     -8.76405314	      0.18678256	     -0.00200000	      0.65992882	      0.00000000	     -0.12570043	      0.00000000
      2.45100000	      0.00000000	      0.00000000	      0.00000000	      0.00000000	      0.00000000	      0.00000000	      0.00000000	      0.00000000	      0.00000000	     13.15359995	    656.63747862	     -8.70754868	      0.18672859	     -0.00200000	      0.66005321	      0.00000000	     -0.12143534	      0.00000000
      2.45200000	      0.00000000	      0.00000000	      0.00000000	      0.00000000	      0.00000000	      0.00000000	      0.00000000	      0.00000000	      0.00000000	     13.18881288	    656.64386749	     -8.64997953	      0.18667453	     -0.00200000	      0.66017690	      0.00000000	     -0.11714183	      0.00000000
      2.45300000	      0.00000000	      0.00000000	      0.00000000	      0.00000000	      0.00000000	      0.00000000	      0.00000000	      0.00000000	      0.00000000	     13.22365422	    656.64704889	     -8.59101005	      0.18662046	     -0.00200000	      0.66029974	      0.00000000	     -0.11280929	      0.00000000
      2.45400000	      0.00000000	      0.00000000	      0.00000000	      0.00000000	      0.00000000	      0.00000000	      0.00000000	      0.00000000	      0.00000000	     13.25811110	    656.64772689	     -8.53086561	      0.18656643	     -0.00200000	      0.66042186	      0.00000000	     -0.10844427	     -0.00000000
      2.45500000	      0.00000000	      0.00000000	      0.00000000	      0.00000000	      0.00000000	      0.00000000	      0.00000000	      0.00000000	      0.00000000	     13.29198852	    656.64543211	     -8.46919157	      0.18651249	     -0.00200000	      0.66054309	      0.00000000	     -0.10403747	     -0.00000000
      2.45600000	      0.00000000	      0.00000000	      0.00000000	      0.00000000	      0.00000000	      0.00000000	      0.00000000	      0.00000000	      0.00000000	     13.32532950	    656.64089471	     -8.40625018	      0.18645869	     -0.00200000	      0.66066357	      0.00000000	     -0.09959668	      0.00000000
      2.45700000	      0.00000000	      0.00000000	      0.00000000	      0.00000000	      0.00000000	      0.00000000	      0.00000000	      0.00000000	      0.00000000	     13.35791107	    656.63372353	     -8.34168196	      0.18640510	     -0.00200000	      0.66078313	      0.00000000	     -0.09511485	      0.00000000
      2.45800000	      0.00000000	      0.00000000	      0.00000000	      0.00000000	      0.00000000	      0.00000000	      0.00000000	      0.00000000	      0.00000000	     13.38982321	    656.62451833	     -8.27578455	      0.18635172	     -0.00200000	      0.66090193	      0.00000000	     -0.09060014	      0.00000000
      2.45900000	      0.00000000	      0.00000000	      0.00000000	      0.00000000	      0.00000000	      0.00000000	      0.00000000	      0.00000000	      0.00000000	     13.42083458	    656.61291406	     -8.20819959	      0.18629862	     -0.00200000	      0.66101979	      0.00000000	     -0.08604224	      0.00000000
      2.46000000	      0.00000000	      0.00000000	      0.00000000	      0.00000000	      0.00000000	      0.00000000	      0.00000000	      0.00000000	      0.00000000	     13.45107928	    656.59948438	     -8.13924745	      0.18624576	     -0.00200000	      0.66113690	      0.00000000	     -0.08144558	      0.00000000
      2.46100000	      0.00000000	      0.00000000	      0.00000000	      0.00000000	      0.00000000	      0.00000000	      0.00000000	      0.00000000	      0.00000000	     13.48031592	    656.58386424	     -8.06856975	      0.18619322	     -0.00200000	      0.66125307	      0.00000000	     -0.07679412	      0.00000000
      2.46200000	      0.00000000	      0.00000000	      0.00000000	      0.00000000	      0.00000000	      0.00000000	      0.00000000	      0.00000000	      0.00000000	     13.50871101	    656.56662732	     -7.99650326	      0.18614096	     -0.00200000	      0.66136851	      0.00000000	     -0.07209308	      0.00000000
      2.46300000	      0.00000000	      0.00000000	      0.00000000	      0.00000000	      0.00000000	      0.00000000	      0.00000000	      0.00000000	      0.00000000	     13.53601366	    656.54738247	     -7.92269781	      0.18608907	     -0.00200000	      0.66148304	      0.00000000	     -0.06732404	      0.00000000
      2.46400000	      0.00000000	      0.00000000	      0.00000000	      0.00000000	      0.00000000	      0.00000000	      0.00000000	      0.00000000	      0.00000000	     13.56241331	    656.52662516	     -7.84750059	      0.18603749	     -0.00200000	      0.66159688	      0.00000000	     -0.06249761	      0.00000000
      2.46500000	      0.00000000	      0.00000000	      0.00000000	      0.00000000	      0.00000000	      0.00000000	      0.00000000	      0.00000000	      0.00000000	     13.58765066	    656.50404245	     -7.77057670	      0.18598632	     -0.00200000	      0.66170988	      0.00000000	     -0.05759608	      0.00000000
      2.46600000	      0.00000000	      0.00000000	      0.00000000	      0.00000000	      0.00000000	      0.00000000	      0.00000000	      0.00000000	      0.00000000	     13.61193918	    656.48005158	     -7.69229457	      0.18593551	     -0.00200000	      0.66182225	      0.00000000	     -0.05263165	      0.00000000
      2.46700000	      0.00000000	      0.00000000	      0.00000000	      0.00000000	      0.00000000	      0.00000000	      0.00000000	      0.00000000	      0.00000000	     13.63502685	    656.45441785	     -7.61236288	      0.18588519	     -0.00200000	      0.66193390	      0.00000000	     -0.04758634	      0.00000000
      2.46800000	      0.00000000	      0.00000000	      0.00000000	      0.00000000	      0.00000000	      0.00000000	      0.00000000	      0.00000000	      0.00000000	     13.65715005	    656.42763674	     -7.53115639	      0.18583529	     -0.00200000	      0.66204504	      0.00000000	     -0.04247544	      0.00000000
      2.46900000	      0.00000000	      0.00000000	      0.00000000	      0.00000000	      0.00000000	      0.00000000	      0.00000000	      0.00000000	      0.00000000	     13.67806625	    656.39952570	     -7.44841322	      0.18578595	     -0.00200000	      0.66215559	      0.00000000	     -0.03728307	     -0.00000000
      2.47000000	      0.00000000	      0.00000000	      0.00000000	      0.00000000	      0.00000000	      0.00000000	      0.00000000	      0.00000000	      0.00000000	     13.69802020	    656.37042373	     -7.36448765	      0.18573708	     -0.00200000	      0.66226576	      0.00000000	     -0.03202768	     -0.00000000
